<?xml version="1.0" standalone="no"?>
<!DOCTYPE svg PUBLIC "-//W3C//DTD SVG 20010904//EN"
 "http://www.w3.org/TR/2001/REC-SVG-20010904/DTD/svg10.dtd">
<svg version="1.0" xmlns="http://www.w3.org/2000/svg"
 width="300.000000pt" height="300.000000pt" viewBox="0 0 300.000000 300.000000"
 preserveAspectRatio="xMidYMid meet">
<metadata>
Created by potrace 1.11, written by Peter Selinger 2001-2013
</metadata>
<g transform="translate(0.000000,300.000000) scale(0.100000,-0.100000)"
fill="#000000" stroke="none">
<path d="M528 2704 c-3 -7 -3 -2032 1 -2057 1 -7 81 -2 136 9 11 2 34 7 50 9
48 9 177 54 210 73 l29 18 1 795 c0 437 3 799 7 805 12 18 642 8 709 -12 10
-3 30 -6 45 -8 95 -12 236 -72 314 -134 134 -105 240 -281 266 -442 3 -19 7
-37 9 -40 2 -3 7 -44 11 -90 34 -389 -84 -691 -351 -901 -181 -143 -386 -230
-695 -295 -37 -7 -46 -9 -120 -19 -25 -3 -58 -8 -75 -10 -87 -13 -285 -17
-285 -6 0 21 39 113 56 132 22 25 16 24 -51 -6 -110 -48 -331 -109 -470 -130
-87 -12 -113 -16 -130 -20 -11 -2 -30 -4 -43 -4 -33 -1 -19 -18 16 -19 24 0
151 -21 357 -58 17 -3 41 -7 55 -9 14 -2 54 -10 90 -19 36 -8 76 -17 90 -20
42 -8 63 -13 110 -26 25 -7 53 -14 64 -16 10 -2 34 -8 53 -15 54 -18 47 -6
-20 34 -34 20 -81 49 -105 65 l-43 29 308 -1 c309 0 408 4 544 25 41 6 90 13
109 16 122 17 337 92 450 156 263 148 436 389 509 710 26 113 28 135 26 312
-2 204 -3 212 -41 353 -49 182 -149 356 -271 472 -85 81 -131 120 -140 120 -3
0 -14 6 -22 14 -55 49 -256 134 -379 161 -86 18 -107 21 -287 41 -88 9 -1092
17 -1097 8z"/>
</g>
</svg>
